<svg width="11" height="15" viewBox="0 0 11 15" fill="none" xmlns="http://www.w3.org/2000/svg">
<path d="M0.70874 14.9531V0.046875H6.04408C7.16248 0.046875 8.17564 0.403125 9.08357 1.11562C9.99076 1.82812 10.4444 2.79375 10.4444 4.0125C10.4444 4.8375 10.2471 5.517 9.85252 6.051C9.45869 6.58575 9.0326 6.975 8.57424 7.21875C9.12427 7.40625 9.65597 7.79512 10.1693 8.38537C10.6827 8.97637 10.9394 9.76875 10.9394 10.7625C10.9394 12.2062 10.4216 13.2656 9.38609 13.9406C8.34982 14.6156 7.30916 14.9531 6.26409 14.9531H0.70874ZM3.07389 12.7031H6.18158C7.04331 12.7031 7.65311 12.4594 8.011 11.9719C8.36816 11.4844 8.54673 11.0156 8.54673 10.5656C8.54673 10.1156 8.36816 9.642 8.011 9.14475C7.65311 8.64825 7.02497 8.4 6.12658 8.4H3.07389V12.7031ZM3.07389 6.23438H5.90657C6.58494 6.23438 7.11664 6.0375 7.50167 5.64375C7.88669 5.25 8.0792 4.78125 8.0792 4.2375C8.0792 3.65625 7.87312 3.18262 7.46097 2.81662C7.04807 2.45137 6.54827 2.26875 5.96157 2.26875H3.07389V6.23438Z" fill="#1C1B1F"/>
</svg>
