<svg width="18" height="17" viewBox="0 0 18 17" fill="none" xmlns="http://www.w3.org/2000/svg">
<path d="M1.93495 16.7602C1.5927 16.7602 1.30326 16.6203 1.06662 16.3406C0.830639 16.0616 0.712646 15.7199 0.712646 15.3153C0.712646 14.9108 0.830639 14.569 1.06662 14.2901C1.30326 14.0103 1.5927 13.8705 1.93495 13.8705C2.27719 13.8705 2.56663 14.0103 2.80327 14.2901C3.03925 14.569 3.15724 14.9108 3.15724 15.3153C3.15724 15.7199 3.03925 16.0616 2.80327 16.3406C2.56663 16.6203 2.27719 16.7602 1.93495 16.7602ZM5.60184 16.1822V14.4484H17.8248V16.1822H5.60184ZM1.93495 9.82493C1.5927 9.82493 1.30326 9.68507 1.06662 9.40535C0.830639 9.1264 0.712646 8.78464 0.712646 8.38009C0.712646 7.97553 0.830639 7.63378 1.06662 7.35483C1.30326 7.0751 1.5927 6.93524 1.93495 6.93524C2.27719 6.93524 2.56663 7.0751 2.80327 7.35483C3.03925 7.63378 3.15724 7.97553 3.15724 8.38009C3.15724 8.78464 3.03925 9.1264 2.80327 9.40535C2.56663 9.68507 2.27719 9.82493 1.93495 9.82493ZM5.60184 9.24699V7.51318H17.8248V9.24699H5.60184ZM1.93495 2.88968C1.5927 2.88968 1.30326 2.74982 1.06662 2.4701C0.830639 2.19115 0.712646 1.8494 0.712646 1.44484C0.712646 1.04029 0.830639 0.698148 1.06662 0.418426C1.30326 0.139475 1.5927 0 1.93495 0C2.27719 0 2.56663 0.139475 2.80327 0.418426C3.03925 0.698148 3.15724 1.04029 3.15724 1.44484C3.15724 1.8494 3.03925 2.19115 2.80327 2.4701C2.56663 2.74982 2.27719 2.88968 1.93495 2.88968ZM5.60184 2.31175V0.577937H17.8248V2.31175H5.60184Z" fill="#1C1B1F"/>
</svg>
