<svg width="17" height="10" viewBox="0 0 17 10" fill="none" xmlns="http://www.w3.org/2000/svg">
<path d="M0.0566406 9.75V0.25H1.5234V4.25H5.92368V0.25H7.39044V9.75H5.92368V5.75H1.5234V9.75H0.0566406ZM9.34611 9.75V6.05C9.34611 5.55 9.51724 5.125 9.85948 4.775C10.2017 4.425 10.6173 4.25 11.1062 4.25H14.9198C15.0013 4.25 15.0707 4.22067 15.1281 4.162C15.1848 4.104 15.2131 4.03333 15.2131 3.95V2.05C15.2131 1.96667 15.1848 1.89567 15.1281 1.837C15.0707 1.779 15.0013 1.75 14.9198 1.75H9.34611V0.25H14.9198C15.4087 0.25 15.8243 0.425 16.1665 0.775C16.5088 1.125 16.6799 1.55 16.6799 2.05V3.95C16.6799 4.45 16.5088 4.875 16.1665 5.225C15.8243 5.575 15.4087 5.75 14.9198 5.75H11.1062C11.0247 5.75 10.9556 5.779 10.8989 5.837C10.8416 5.89567 10.8129 5.96667 10.8129 6.05V8.25H16.6799V9.75H9.34611Z" fill="#1C1B1F"/>
</svg>
