<svg width="39" height="22" viewBox="0 0 39 22" fill="none" xmlns="http://www.w3.org/2000/svg">
<path d="M32.6009 1.54L32.6497 3.04708C30.7759 1.15942 28.2371 0 25.4409 0C22.4954 0 19.8355 1.28708 17.9381 3.3554C16.0407 1.28708 13.3808 0 10.4353 0C4.67229 0 0 4.92511 0 11C0 17.0749 4.67229 22 10.4353 22C13.3808 22 16.0407 20.7129 17.9381 18.6446C19.8355 20.7137 22.4954 22 25.4409 22C28.3864 22 31.2359 20.6198 33.144 18.4206L33.2156 20.635H37.2481L39 0.80292L32.6009 1.54Z" fill="#7963FF"/>
</svg>
