<svg width="24" height="24" viewBox="0 0 24 24" fill="none" xmlns="http://www.w3.org/2000/svg">
<path d="M12 20.9833L10.8334 19.9334C9.09703 18.3487 7.66156 16.9817 6.52693 15.8323C5.39231 14.683 4.48889 13.6542 3.81668 12.7458C3.14444 11.8375 2.67361 11.0111 2.40418 10.2667C2.13472 9.52223 2 8.76668 2 8.00001C2 6.47608 2.51111 5.20343 3.53332 4.18206C4.55556 3.16069 5.82223 2.65001 7.33333 2.65001C8.25556 2.65001 9.11668 2.86112 9.91668 3.28333C10.7167 3.70557 11.4111 4.31113 12 5.10001C12.6556 4.27779 13.375 3.6639 14.1583 3.25833C14.9417 2.85278 15.7778 2.65001 16.6667 2.65001C18.1778 2.65001 19.4444 3.16069 20.4667 4.18206C21.4889 5.20343 22 6.47608 22 8.00001C22 8.76668 21.8653 9.52223 21.5958 10.2667C21.3264 11.0111 20.8556 11.8375 20.1833 12.7458C19.5111 13.6542 18.6077 14.683 17.4731 15.8323C16.3384 16.9817 14.903 18.3487 13.1667 19.9334L12 20.9833ZM12 18.7667C13.6582 17.2556 15.0227 15.9598 16.0936 14.8792C17.1645 13.7987 18.0139 12.8542 18.6417 12.0458C19.2695 11.2375 19.7084 10.5173 19.9584 9.88526C20.2084 9.25319 20.3334 8.62558 20.3334 8.00241C20.3334 6.93414 19.9889 6.05278 19.3 5.35833C18.6111 4.66388 17.7346 4.31666 16.6704 4.31666C15.8368 4.31666 15.0653 4.56528 14.3559 5.06251C13.6464 5.55973 13.1 6.23889 12.7167 7.10001H11.2667C10.8944 6.25001 10.3536 5.57362 9.64415 5.07083C8.93472 4.56805 8.16319 4.31666 7.32958 4.31666C6.26541 4.31666 5.38888 4.66388 4.7 5.35833C4.0111 6.05278 3.66665 6.93509 3.66665 8.00526C3.66665 8.62954 3.79165 9.25973 4.04165 9.89583C4.29165 10.532 4.73054 11.257 5.35833 12.0708C5.98611 12.8847 6.83889 13.8292 7.91668 14.9042C8.99444 15.9792 10.3555 17.2667 12 18.7667Z" fill="#1C1B1F"/>
</svg>
