<svg width="24" height="24" viewBox="0 0 24 24" fill="none" xmlns="http://www.w3.org/2000/svg">
<path d="M6.75 3.375L11.5 5.5H12.5L15 3.375L18 3L21.5 6.5L20.375 10.625L16.5 16.5L12 19.5L6.75 15.375L3 8.625L3.375 6L5.25 3.75L6.75 3.375Z" fill="black" fill-opacity="0.3"/>
<path d="M12.6333 20.9833L11.4667 19.9334C9.73034 18.3487 8.29487 16.9817 7.16023 15.8323C6.02562 14.683 5.1222 13.6542 4.44998 12.7458C3.77775 11.8375 3.30692 11.0111 3.03748 10.2667C2.76803 9.52223 2.63331 8.76668 2.63331 8.00001C2.63331 6.47608 3.14442 5.20343 4.16663 4.18206C5.18887 3.16069 6.45553 2.65001 7.96663 2.65001C8.88887 2.65001 9.74998 2.86112 10.55 3.28333C11.35 3.70557 12.0444 4.31113 12.6333 5.10001C13.2889 4.27779 14.0083 3.6639 14.7916 3.25833C15.575 2.85278 16.4111 2.65001 17.3 2.65001C18.8111 2.65001 20.0778 3.16069 21.1 4.18206C22.1222 5.20343 22.6333 6.47608 22.6333 8.00001C22.6333 8.76668 22.4986 9.52223 22.2291 10.2667C21.9597 11.0111 21.4889 11.8375 20.8166 12.7458C20.1444 13.6542 19.241 14.683 18.1064 15.8323C16.9718 16.9817 15.5363 18.3487 13.8 19.9334L12.6333 20.9833ZM12.6333 18.7667C14.2915 17.2556 15.656 15.9598 16.727 14.8792C17.7979 13.7987 18.6472 12.8542 19.275 12.0458C19.9028 11.2375 20.3417 10.5173 20.5917 9.88526C20.8417 9.25319 20.9667 8.62558 20.9667 8.00241C20.9667 6.93414 20.6222 6.05278 19.9333 5.35833C19.2444 4.66388 18.3679 4.31666 17.3037 4.31666C16.4701 4.31666 15.6986 4.56528 14.9892 5.06251C14.2797 5.55973 13.0167 6.63888 12.6333 7.5C12.2611 6.65 10.9869 5.57362 10.2775 5.07083C9.56803 4.56805 8.7965 4.31666 7.96288 4.31666C6.89872 4.31666 6.02219 4.66388 5.33331 5.35833C4.64441 6.05278 4.29996 6.93509 4.29996 8.00526C4.29996 8.62954 4.42496 9.25973 4.67496 9.89583C4.92496 10.532 5.36385 11.257 5.99163 12.0708C6.61942 12.8847 7.4722 13.8292 8.54998 14.9042C9.62775 15.9792 10.9889 17.2667 12.6333 18.7667Z" fill="white"/>
</svg>
