<svg width="32" height="32" viewBox="0 0 32 32" fill="none" xmlns="http://www.w3.org/2000/svg">
<g id="favorite/filled">
<mask id="mask0_826_1715" style="mask-type:alpha" maskUnits="userSpaceOnUse" x="0" y="0" width="32" height="32">
<rect id="Bounding box" width="32" height="32" fill="#D9D9D9"/>
</mask>
<g mask="url(#mask0_826_1715)">
<g id="Group 1">
<path id="favorite" d="M16 27.9778L14.4444 26.5778C12.1293 24.4649 10.2154 22.6422 8.70253 21.1098C7.1897 19.5773 5.98515 18.2056 5.08886 16.9945C4.19255 15.7833 3.56477 14.6815 3.20553 13.6889C2.84626 12.6963 2.66663 11.6889 2.66663 10.6667C2.66663 8.63478 3.3481 6.93791 4.71106 5.57609C6.07404 4.21427 7.76293 3.53336 9.77773 3.53336C11.0074 3.53336 12.1555 3.81483 13.2222 4.37779C14.2889 4.94077 15.2148 5.74818 16 6.80002C16.874 5.70373 17.8333 4.88521 18.8777 4.34446C19.9222 3.80372 21.037 3.53336 22.2222 3.53336C24.237 3.53336 25.9259 4.21427 27.2889 5.57609C28.6518 6.93791 29.3333 8.63478 29.3333 10.6667C29.3333 11.6889 29.1537 12.6963 28.7944 13.6889C28.4352 14.6815 27.8074 15.7833 26.9111 16.9945C26.0148 18.2056 24.8102 19.5773 23.2974 21.1098C21.7845 22.6422 19.8706 24.4649 17.5555 26.5778L16 27.9778ZM16 25.0223C18.2109 23.0075 20.0303 21.2798 21.4582 19.839C22.886 18.3982 24.0185 17.1389 24.8555 16.0611C25.6926 14.9833 26.2778 14.0231 26.6111 13.1804C26.9444 12.3376 27.1111 11.5008 27.1111 10.6699C27.1111 9.24553 26.6518 8.07039 25.7333 7.14446C24.8148 6.21852 23.6461 5.75556 22.2272 5.75556C21.1157 5.75556 20.087 6.08704 19.1411 6.75002C18.1952 7.41298 17.4666 8.31853 16.9555 9.46669H15.0222C14.5259 8.33336 13.8048 7.4315 12.8588 6.76112C11.9129 6.09075 10.8842 5.75556 9.77273 5.75556C8.35384 5.75556 7.18514 6.21852 6.26663 7.14446C5.34809 8.07039 4.88883 9.2468 4.88883 10.6737C4.88883 11.5061 5.05549 12.3463 5.38883 13.1945C5.72216 14.0426 6.30735 15.0093 7.14439 16.0945C7.98144 17.1797 9.11848 18.4389 10.5555 19.8723C11.9925 21.3056 13.8074 23.0223 16 25.0223Z" fill="#7963FF"/>
<path id="Vector 1" d="M9.5 5L14.5 7H17.5L20.5 5L24.5 4.5L28.5 8.5L27 14L22.5 21L15.5 25.5L8.5 20L4.5 12L5 8.5L7.5 5.5L9.5 5Z" fill="#7963FF"/>
</g>
</g>
</g>
</svg>
