<svg width="118" height="117" viewBox="0 0 118 117" fill="none" xmlns="http://www.w3.org/2000/svg">
<g id="icons">
<path id="Vector" d="M59 0C26.708 0 0.5 26.208 0.5 58.5C0.5 90.792 26.708 117 59 117C91.292 117 117.5 90.792 117.5 58.5C117.5 26.208 91.292 0 59 0ZM59 64.35C55.7825 64.35 53.15 61.7175 53.15 58.5V35.1C53.15 31.8825 55.7825 29.25 59 29.25C62.2175 29.25 64.85 31.8825 64.85 35.1V58.5C64.85 61.7175 62.2175 64.35 59 64.35ZM64.85 87.75H53.15V76.05H64.85V87.75Z" fill="#E6E6E6"/>
</g>
</svg>
