<svg width="50" height="50" viewBox="0 0 50 50" fill="none" xmlns="http://www.w3.org/2000/svg">
<g id="location_on">
<mask id="mask0_737_1482" style="mask-type:alpha" maskUnits="userSpaceOnUse" x="0" y="0" width="50" height="50">
<rect id="Bounding box" x="0.5" y="0.5" width="49" height="49" fill="#D9D9D9" stroke="#E6E6E6"/>
</mask>
<g mask="url(#mask0_737_1482)">
<path id="location_on_2" d="M24.9999 25.4998C26.2794 25.4998 27.3872 25.0384 28.2962 24.1294C29.2052 23.2204 29.6666 22.1127 29.6666 20.8332C29.6666 19.5537 29.2052 18.4459 28.2962 17.5369C27.3872 16.6279 26.2794 16.1665 24.9999 16.1665C23.7204 16.1665 22.6126 16.6279 21.7037 17.5369C20.7947 18.4459 20.3333 19.5537 20.3333 20.8332C20.3333 22.1127 20.7947 23.2204 21.7037 24.1294C22.6126 25.0384 23.7204 25.4998 24.9999 25.4998ZM24.9999 45.1757C19.5922 40.5411 15.5608 36.2482 12.888 32.2978C10.1611 28.2674 8.83325 24.5884 8.83325 21.2498C8.83325 16.1592 10.4653 12.1512 13.6983 9.16947C16.9601 6.16119 20.7204 4.6665 24.9999 4.6665C29.2794 4.6665 33.0398 6.16119 36.3016 9.16947C39.5345 12.1512 41.1666 16.1592 41.1666 21.2498C41.1666 24.5884 39.8388 28.2674 37.1118 32.2978C34.439 36.2482 30.4076 40.5411 24.9999 45.1757Z" fill="#7963FF" stroke="#E6E6E6"/>
</g>
</g>
</svg>
