<svg width="24" height="25" viewBox="0 0 24 25" fill="none" xmlns="http://www.w3.org/2000/svg">
<g id="icons">
<mask id="mask0_1377_1692" style="mask-type:alpha" maskUnits="userSpaceOnUse" x="0" y="0" width="24" height="25">
<rect id="Bounding box" y="0.599609" width="24" height="24" fill="#D9D9D9"/>
</mask>
<g mask="url(#mask0_1377_1692)">
<path id="add_circle" d="M11 17.5996H13V13.5996H17V11.5996H13V7.59961H11V11.5996H7V13.5996H11V17.5996ZM12 22.5996C10.6167 22.5996 9.31667 22.3371 8.1 21.8121C6.88333 21.2871 5.825 20.5746 4.925 19.6746C4.025 18.7746 3.3125 17.7163 2.7875 16.4996C2.2625 15.2829 2 13.9829 2 12.5996C2 11.2163 2.2625 9.91628 2.7875 8.69961C3.3125 7.48294 4.025 6.42461 4.925 5.52461C5.825 4.62461 6.88333 3.91211 8.1 3.38711C9.31667 2.86211 10.6167 2.59961 12 2.59961C13.3833 2.59961 14.6833 2.86211 15.9 3.38711C17.1167 3.91211 18.175 4.62461 19.075 5.52461C19.975 6.42461 20.6875 7.48294 21.2125 8.69961C21.7375 9.91628 22 11.2163 22 12.5996C22 13.9829 21.7375 15.2829 21.2125 16.4996C20.6875 17.7163 19.975 18.7746 19.075 19.6746C18.175 20.5746 17.1167 21.2871 15.9 21.8121C14.6833 22.3371 13.3833 22.5996 12 22.5996ZM12 20.5996C14.2333 20.5996 16.125 19.8246 17.675 18.2746C19.225 16.7246 20 14.8329 20 12.5996C20 10.3663 19.225 8.47461 17.675 6.92461C16.125 5.37461 14.2333 4.59961 12 4.59961C9.76667 4.59961 7.875 5.37461 6.325 6.92461C4.775 8.47461 4 10.3663 4 12.5996C4 14.8329 4.775 16.7246 6.325 18.2746C7.875 19.8246 9.76667 20.5996 12 20.5996Z" fill="#7E7E7E"/>
</g>
</g>
</svg>
