<svg width="21" height="22" viewBox="0 0 21 22" fill="none" xmlns="http://www.w3.org/2000/svg">
<path d="M16.031 15.46L20.314 19.742L18.899 21.157L14.617 16.874C13.0237 18.1512 11.042 18.8459 9 18.843C4.032 18.843 0 14.811 0 9.84299C0 4.87499 4.032 0.842987 9 0.842987C13.968 0.842987 18 4.87499 18 9.84299C18.0029 11.885 17.3082 13.8667 16.031 15.46ZM14.025 14.718C15.2941 13.4129 16.0029 11.6634 16 9.84299C16 5.97499 12.867 2.84299 9 2.84299C5.132 2.84299 2 5.97499 2 9.84299C2 13.71 5.132 16.843 9 16.843C10.8204 16.8459 12.5699 16.1371 13.875 14.868L14.025 14.718Z" fill="black"/>
</svg>
