<svg width="32" height="32" viewBox="0 0 32 32" fill="none" xmlns="http://www.w3.org/2000/svg">
<g id="favorite/default">
<mask id="mask0_1003_83" style="mask-type:alpha" maskUnits="userSpaceOnUse" x="0" y="0" width="32" height="32">
<rect id="Bounding box" width="32" height="32" fill="#D9D9D9"/>
</mask>
<g mask="url(#mask0_1003_83)">
<path id="favorite" d="M2.7354 13.8591C3.11649 14.912 3.77309 16.057 4.68698 17.2919C5.60189 18.5281 6.82371 19.9182 8.34673 21.461C9.86773 23.0017 11.7885 24.8307 14.1074 26.9471L14.11 26.9494L15.6655 28.3494L16 28.6504L16.3345 28.3494L17.89 26.9495L17.8926 26.9471C20.2115 24.8307 22.1322 23.0017 23.6532 21.461C25.1763 19.9182 26.3981 18.5281 27.313 17.2919C28.2269 16.057 28.8835 14.912 29.2646 13.8591C29.6429 12.8137 29.8333 11.7488 29.8333 10.6667C29.8333 8.51012 29.1047 6.6835 27.6423 5.22236L27.2889 5.57606L27.6423 5.22236C26.1809 3.76219 24.3628 3.03333 22.2222 3.03333C20.9577 3.03333 19.7639 3.32259 18.6479 3.9004L18.6479 3.90041C17.692 4.39532 16.8136 5.10218 16.0104 6.01016C15.2707 5.1379 14.4193 4.44421 13.4556 3.93557L13.4556 3.93557C12.3156 3.33388 11.0871 3.03333 9.77776 3.03333C7.63717 3.03333 5.81909 3.76219 4.35769 5.22235L4.35768 5.22236C2.89532 6.6835 2.16666 8.51012 2.16666 10.6667C2.16666 11.7488 2.35704 12.8137 2.7354 13.8591ZM2.7354 13.8591L3.20497 13.6891L2.7354 13.8591C2.7354 13.8591 2.7354 13.8591 2.7354 13.8591ZM24.4607 15.7544L24.8556 16.0611L24.4607 15.7544C23.6403 16.8107 22.5229 18.0544 21.1031 19.487C19.7561 20.8461 18.0556 22.4652 16.0001 24.3451C13.9614 22.4794 12.2646 20.8707 10.9087 19.5182L10.5764 19.8514L10.9087 19.5182C9.48039 18.0936 8.35954 16.8511 7.54033 15.789L7.14442 16.0944L7.54033 15.789C6.71915 14.7244 6.16395 13.7997 5.85421 13.0115L5.38886 13.1944L5.85421 13.0115C5.54159 12.2161 5.38886 11.4378 5.38886 10.6737C5.38886 9.36505 5.80517 8.31959 6.62163 7.49656L6.62163 7.49655C7.43753 6.67406 8.47424 6.25553 9.77276 6.25553C10.776 6.25553 11.7045 6.5558 12.5697 7.16903L12.8589 6.76109L12.5698 7.16904C13.4366 7.78336 14.1018 8.61127 14.5642 9.66723L14.6953 9.96666H15.0222H16.9555H17.2802L17.4123 9.67001C17.8899 8.59714 18.5629 7.76583 19.4281 7.15944L19.1411 6.74999L19.4281 7.15944C20.2934 6.55294 21.2226 6.25553 22.2272 6.25553C23.5257 6.25553 24.5625 6.67406 25.3784 7.49655L25.7333 7.14443L25.3784 7.49656C26.195 8.31977 26.6111 9.36406 26.6111 10.6699C26.6111 11.4323 26.4585 12.2069 26.1462 12.9964C25.8367 13.7789 25.2818 14.6972 24.4607 15.7544Z" fill="#1C1B1F" stroke="white"/>
</g>
</g>
</svg>
