<svg width="21" height="20" viewBox="0 0 21 20" fill="none" xmlns="http://www.w3.org/2000/svg">
<path d="M2.60812 20C2.01805 20 1.51176 19.7986 1.08927 19.3957C0.665986 18.9928 0.454346 18.5036 0.454346 17.9281V2.5036C0.454346 1.92806 0.665986 1.43885 1.08927 1.03597C1.51176 0.633094 2.01805 0.431655 2.60812 0.431655H12.8459V2.15827H2.60812C2.49011 2.15827 2.39687 2.19204 2.32843 2.25957C2.25919 2.32633 2.22457 2.40767 2.22457 2.5036V17.9281C2.22457 18.024 2.25919 18.1057 2.32843 18.1732C2.39687 18.24 2.49011 18.2734 2.60812 18.2734H18.3926C18.491 18.2734 18.5744 18.24 18.6428 18.1732C18.7121 18.1057 18.7467 18.024 18.7467 17.9281V7.91367H20.5169V17.9281C20.5169 18.5036 20.3104 18.9928 19.8973 19.3957C19.4843 19.7986 18.9827 20 18.3926 20H2.60812ZM16.8584 6.33094V4.02878H14.4981V2.30216H16.8584V0H18.6287V2.30216H20.989V4.02878H18.6287V6.33094H16.8584ZM4.28984 15.6835H16.7699L12.9049 10.6475L9.60051 14.8489L7.24021 11.8849L4.28984 15.6835Z" fill="#1C1B1F"/>
</svg>
