<svg xmlns="http://www.w3.org/2000/svg" width="36" height="36" viewBox="0 0 36 36" fill="none">
<path d="M15.48 21.24L11.61 17.37C11.28 17.04 10.86 16.875 10.35 16.875C9.84 16.875 9.42 17.04 9.09 17.37C8.76 17.7 8.595 18.12 8.595 18.63C8.595 19.14 8.76 19.56 9.09 19.89L14.22 25.02C14.58 25.38 15 25.56 15.48 25.56C15.96 25.56 16.38 25.38 16.74 25.02L26.91 14.85C27.24 14.52 27.405 14.1 27.405 13.59C27.405 13.08 27.24 12.66 26.91 12.33C26.58 12 26.16 11.835 25.65 11.835C25.14 11.835 24.72 12 24.39 12.33L15.48 21.24ZM18 36C15.51 36 13.17 35.5272 10.98 34.5816C8.79 33.636 6.885 32.3538 5.265 30.735C3.645 29.115 2.3628 27.21 1.4184 25.02C0.474 22.83 0.0012 20.49 0 18C0 15.51 0.4728 13.17 1.4184 10.98C2.364 8.79 3.6462 6.885 5.265 5.265C6.885 3.645 8.79 2.3628 10.98 1.4184C13.17 0.474 15.51 0.0012 18 0C20.49 0 22.83 0.4728 25.02 1.4184C27.21 2.364 29.115 3.6462 30.735 5.265C32.355 6.885 33.6378 8.79 34.5834 10.98C35.529 13.17 36.0012 15.51 36 18C36 20.49 35.5272 22.83 34.5816 25.02C33.636 27.21 32.3538 29.115 30.735 30.735C29.115 32.355 27.21 33.6378 25.02 34.5834C22.83 35.529 20.49 36.0012 18 36ZM18 32.4C22.02 32.4 25.425 31.005 28.215 28.215C31.005 25.425 32.4 22.02 32.4 18C32.4 13.98 31.005 10.575 28.215 7.785C25.425 4.995 22.02 3.6 18 3.6C13.98 3.6 10.575 4.995 7.785 7.785C4.995 10.575 3.6 13.98 3.6 18C3.6 22.02 4.995 25.425 7.785 28.215C10.575 31.005 13.98 32.4 18 32.4Z" fill="#7963FF"/>
</svg>